<svg xmlns="http://www.w3.org/2000/svg" enable-background="new 0 0 32 32" viewBox="0 0 32 32" id="framer">
  <path fill="#E3F8FA" d="M26,32H6c-3.314,0-6-2.686-6-6V6c0-3.314,2.686-6,6-6h20c3.314,0,6,2.686,6,6v20C32,29.314,29.314,32,26,32z"></path>
  <path fill="#E3F8FA" d="M26,32H6c-3.314,0-6-2.686-6-6V6c0-3.314,2.686-6,6-6h20c3.314,0,6,2.686,6,6v20C32,29.314,29.314,32,26,32z"></path>
  <polygon fill="#26C6DA" points="10.666 18.667 16 24 16 18.667 21.334 18.667 16 13.333 10.666 13.333"></polygon>
  <polygon fill="#8CE1EB" points="21.334 8 10.666 8 16 13.333 21.334 13.333"></polygon>
</svg>
