<?xml version="1.0" encoding="utf-8"?>
<!-- Generator: Adobe Illustrator 27.5.0, SVG Export Plug-In . SVG Version: 6.00 Build 0)  -->
<svg version="1.1" xmlns="http://www.w3.org/2000/svg" xmlns:xlink="http://www.w3.org/1999/xlink" x="0px" y="0px"
	 viewBox="0 0 500 500" style="enable-background:new 0 0 500 500;" xml:space="preserve">
<g id="Background_Simple">
	<g>
		<path style="fill:#C6FF00;" d="M441.403,270.76c2.027-26.754-4.243-54.698-12.638-79.604
			c-12.47-36.996-36.679-74.933-77.445-83.69c-23.509-5.05-47.431,0.362-67.583,13.012c-19.384,12.169-34.502,27.886-58.325,30.931
			c-24.103,3.081-48.835,1.84-73.066,1.84c-62.291,0-112.847,65-100.208,132.707c12.639,67.708,72.221,114.652,122.778,114.652
			c45.429,0,82.803-27.072,125.952-34.339c21.398-3.604,42.886,0.661,64.058-4.739c24.612-6.278,47.757-21.26,61.392-42.948
			C435.61,303.801,440.133,287.514,441.403,270.76z"/>
		<path style="opacity:0.7;fill:#FFFFFF;" d="M441.403,270.76c2.027-26.754-4.243-54.698-12.638-79.604
			c-12.47-36.996-36.679-74.933-77.445-83.69c-23.509-5.05-47.431,0.362-67.583,13.012c-19.384,12.169-34.502,27.886-58.325,30.931
			c-24.103,3.081-48.835,1.84-73.066,1.84c-62.291,0-112.847,65-100.208,132.707c12.639,67.708,72.221,114.652,122.778,114.652
			c45.429,0,82.803-27.072,125.952-34.339c21.398-3.604,42.886,0.661,64.058-4.739c24.612-6.278,47.757-21.26,61.392-42.948
			C435.61,303.801,440.133,287.514,441.403,270.76z"/>
	</g>
</g>
<g id="Shadow">
	<ellipse style="fill:#263238;" cx="246.686" cy="417.761" rx="194.547" ry="5.417"/>
</g>
<g id="Crane">
	<g>
		<polygon style="fill:none;stroke:#263238;stroke-linecap:round;stroke-linejoin:round;stroke-miterlimit:10;" points="
			345.25,412.816 327.25,412.816 327.25,88.439 345.25,109.37 		"/>
		<polygon style="fill:none;stroke:#263238;stroke-linecap:round;stroke-linejoin:round;stroke-miterlimit:10;" points="
			327.421,336.439 345.079,336.439 327.421,319.37 345.079,319.37 		"/>
		<polygon style="fill:none;stroke:#263238;stroke-linecap:round;stroke-linejoin:round;stroke-miterlimit:10;" points="
			327.421,318.939 345.079,318.939 327.421,301.87 345.079,301.87 		"/>
		<polygon style="fill:none;stroke:#263238;stroke-linecap:round;stroke-linejoin:round;stroke-miterlimit:10;" points="
			327.421,371.293 345.079,371.293 327.421,354.224 345.079,354.224 		"/>
		<polygon style="fill:none;stroke:#263238;stroke-linecap:round;stroke-linejoin:round;stroke-miterlimit:10;" points="
			327.421,353.793 345.079,353.793 327.421,336.724 345.079,336.724 		"/>
		<polygon style="fill:none;stroke:#263238;stroke-linecap:round;stroke-linejoin:round;stroke-miterlimit:10;" points="
			327.421,301.439 345.079,301.439 327.421,284.37 345.079,284.37 		"/>
		<polygon style="fill:none;stroke:#263238;stroke-linecap:round;stroke-linejoin:round;stroke-miterlimit:10;" points="
			327.421,283.939 345.079,283.939 327.421,266.87 345.079,266.87 		"/>
		<polygon style="fill:none;stroke:#263238;stroke-linecap:round;stroke-linejoin:round;stroke-miterlimit:10;" points="
			327.421,266.439 345.079,266.439 327.421,249.37 345.079,249.37 		"/>
		<polygon style="fill:none;stroke:#263238;stroke-linecap:round;stroke-linejoin:round;stroke-miterlimit:10;" points="
			327.421,248.939 345.079,248.939 327.421,231.87 345.079,231.87 		"/>
		<polygon style="fill:none;stroke:#263238;stroke-linecap:round;stroke-linejoin:round;stroke-miterlimit:10;" points="
			327.421,231.439 345.079,231.439 327.421,214.37 345.079,214.37 		"/>
		<polygon style="fill:none;stroke:#263238;stroke-linecap:round;stroke-linejoin:round;stroke-miterlimit:10;" points="
			327.421,213.939 345.079,213.939 327.421,196.87 345.079,196.87 		"/>
		<polygon style="fill:none;stroke:#263238;stroke-linecap:round;stroke-linejoin:round;stroke-miterlimit:10;" points="
			327.421,196.439 345.079,196.439 327.421,179.37 345.079,179.37 		"/>
		<polygon style="fill:none;stroke:#263238;stroke-linecap:round;stroke-linejoin:round;stroke-miterlimit:10;" points="
			327.421,178.939 345.079,178.939 327.421,161.87 345.079,161.87 		"/>
		<polygon style="fill:none;stroke:#263238;stroke-linecap:round;stroke-linejoin:round;stroke-miterlimit:10;" points="
			327.421,161.439 345.079,161.439 327.421,144.37 345.079,144.37 		"/>
		<polygon style="fill:none;stroke:#263238;stroke-linecap:round;stroke-linejoin:round;stroke-miterlimit:10;" points="
			327.421,143.939 345.079,143.939 327.421,126.87 345.079,126.87 		"/>
		<polygon style="fill:none;stroke:#263238;stroke-linecap:round;stroke-linejoin:round;stroke-miterlimit:10;" points="
			327.421,126.439 345.079,126.439 327.421,109.37 345.079,109.37 		"/>
		<polygon style="fill:none;stroke:#263238;stroke-linecap:round;stroke-linejoin:round;stroke-miterlimit:10;" points="
			428.813,126.907 420.094,121.417 357.868,121.417 350.266,126.907 		"/>
		
			<rect x="278.25" y="126.439" style="fill:#263238;stroke:#263238;stroke-linecap:round;stroke-linejoin:round;stroke-miterlimit:10;" width="152" height="4"/>
		<polyline style="fill:none;stroke:#263238;stroke-linecap:round;stroke-linejoin:round;stroke-miterlimit:10;" points="
			420.094,121.417 327.25,88.439 357.868,121.417 		"/>
		
			<line style="fill:none;stroke:#263238;stroke-linecap:round;stroke-linejoin:round;stroke-miterlimit:10;" x1="327.25" y1="88.439" x2="278.25" y2="126.439"/>
		
			<rect x="320.75" y="134.939" style="fill:#263238;stroke:#263238;stroke-linecap:round;stroke-linejoin:round;stroke-miterlimit:10;" width="37.5" height="24"/>
		
			<rect x="320.75" y="389.296" style="fill:#263238;stroke:#263238;stroke-linecap:round;stroke-linejoin:round;stroke-miterlimit:10;" width="37.5" height="24"/>
		
			<rect x="328.562" y="139.939" style="fill:#FFFFFF;stroke:#263238;stroke-linecap:round;stroke-linejoin:round;stroke-miterlimit:10;" width="21.875" height="7"/>
		
			<line style="fill:#FFFFFF;stroke:#263238;stroke-linecap:round;stroke-linejoin:round;stroke-miterlimit:10;" x1="430.25" y1="130.439" x2="430.25" y2="173.562"/>
		<g>
			
				<rect x="424.848" y="188.284" style="fill:#263238;stroke:#263238;stroke-linecap:round;stroke-linejoin:round;stroke-miterlimit:10;" width="11.113" height="12.594"/>
			<polyline style="fill:none;stroke:#263238;stroke-linecap:round;stroke-linejoin:round;stroke-miterlimit:10;" points="
				424.848,188.284 430.405,172.737 435.961,188.284 			"/>
		</g>
	</g>
</g>
<g id="Device">
	<g>
		<g id="XMLID_139_">
			
				<path id="XMLID_147_" style="fill:#FFFFFF;stroke:#263238;stroke-width:1.0954;stroke-linecap:round;stroke-linejoin:round;stroke-miterlimit:10;" d="
				M282.172,386.242v-22.258h-65.555v22.258c0,7.263-2.453,14.313-6.962,20.008l-2.871,3.625h85.221l-2.871-3.625
				C284.626,400.555,282.172,393.505,282.172,386.242z"/>
			<path style="fill:#C6FF00;" d="M212.593,401.829h73.604c-2.624-4.747-4.025-10.106-4.025-15.587v-3.97v-18.289h-65.555v18.289
				v3.97C216.617,391.723,215.217,397.081,212.593,401.829z"/>
			
				<rect x="216.617" y="367.334" style="fill:#263238;stroke:#263238;stroke-width:1.0954;stroke-linecap:round;stroke-linejoin:round;stroke-miterlimit:10;" width="65.555" height="9.397"/>
			
				<path id="XMLID_146_" style="fill:#263238;stroke:#263238;stroke-width:1.0954;stroke-linecap:round;stroke-linejoin:round;stroke-miterlimit:10;" d="
				M371.834,371.003H126.955c-5.133,0-9.294-4.161-9.294-9.294V182.696c0-5.133,4.161-9.294,9.294-9.294h244.879
				c5.133,0,9.294,4.161,9.294,9.294v179.012C381.128,366.841,376.967,371.003,371.834,371.003z"/>
			
				<path id="XMLID_145_" style="fill:#FFFFFF;stroke:#263238;stroke-width:1.0954;stroke-linecap:round;stroke-linejoin:round;stroke-miterlimit:10;" d="
				M371.834,371.003H126.955c-5.133,0-9.294-4.161-9.294-9.294v-21.421h263.467v21.421
				C381.128,366.841,376.967,371.003,371.834,371.003z"/>
			
				<rect id="XMLID_144_" x="130.914" y="185.695" style="fill:#C6FF00;stroke:#263238;stroke-width:1.0954;stroke-linecap:round;stroke-linejoin:round;stroke-miterlimit:10;" width="236.962" height="139.604"/>
			
				<path id="XMLID_143_" style="fill:#263238;stroke:#263238;stroke-width:1.0954;stroke-linecap:round;stroke-linejoin:round;stroke-miterlimit:10;" d="
				M254.254,355.645c0-2.683-2.175-4.859-4.859-4.859c-2.684,0-4.859,2.176-4.859,4.859c0,2.684,2.175,4.859,4.859,4.859
				C252.078,360.504,254.254,358.329,254.254,355.645z"/>
			
				<rect id="XMLID_142_" x="206.784" y="409.875" style="fill:#FFFFFF;stroke:#263238;stroke-width:1.0954;stroke-linecap:round;stroke-linejoin:round;stroke-miterlimit:10;" width="85.239" height="3.974"/>
		</g>
	</g>
</g>
<g id="Tools">
	<g>
		
			<path style="fill:#263238;stroke:#263238;stroke-width:1.0954;stroke-linecap:round;stroke-linejoin:round;stroke-miterlimit:10;" d="
			M326.51,220.675c5.792-5.792,7.961-13.835,6.507-21.313l-14.863,14.863c-1.758,1.758-4.609,1.758-6.368,0l-12.358-12.359
			c-1.758-1.758-1.758-4.609,0-6.368l14.863-14.863c-7.478-1.454-15.521,0.715-21.313,6.507c-6.858,6.858-8.631,16.869-5.331,25.364
			l-38.383,37.441l-3.704-3.704l6.038-6.038c0.645-0.645,0.645-1.692,0-2.337l-4.674-4.675c-0.645-0.645-1.692-0.645-2.337,0
			l-2.337,2.337l-5.064-5.064l1.948-1.948c0.861-0.861,0.861-2.256,0-3.116l-41.876-41.876c-4.195-4.195-10.997-4.195-15.192,0
			l-4.285,4.285c-4.195,4.195-4.195,10.997,0,15.192l41.876,41.876c0.861,0.861,2.256,0.861,3.116,0l1.948-1.948l5.064,5.064
			l-2.337,2.337c-0.645,0.645-0.645,1.692,0,2.337l4.674,4.674c0.645,0.645,1.692,0.645,2.337,0l6.038-6.038l3.641,3.641
			l-31.82,31.04c-8.495-3.3-18.506-1.526-25.364,5.331c-5.792,5.792-7.961,13.835-6.507,21.313l14.863-14.863
			c1.758-1.758,4.609-1.758,6.368,0l12.359,12.359c1.758,1.758,1.758,4.609,0,6.368l-14.864,14.863
			c7.478,1.454,15.521-0.715,21.314-6.507c6.858-6.858,8.631-16.869,5.331-25.364l31.82-31.04l43.384,43.384
			c-1.233,3.181-0.571,6.928,1.997,9.495l10.469,10.469l12.563-12.563l-10.469-10.469c-2.567-2.567-6.314-3.229-9.495-1.996
			l-43.321-43.321l38.383-37.441C309.641,229.306,319.652,227.533,326.51,220.675z"/>
		<g>
			<g>
				<path style="fill:#FFFFFF;stroke:#263238;stroke-miterlimit:10;" d="M223.149,294.156l75.33-73.483
					c8.495,3.3,18.506,1.526,25.364-5.331c5.792-5.792,7.961-13.835,6.507-21.313l-14.863,14.863c-1.758,1.758-4.609,1.758-6.368,0
					l-12.358-12.359c-1.758-1.758-1.758-4.609,0-6.368l14.863-14.863c-7.478-1.454-15.521,0.715-21.314,6.507
					c-6.858,6.858-8.631,16.869-5.331,25.364l-75.33,73.483c-8.495-3.3-18.506-1.526-25.364,5.331
					c-5.792,5.792-7.961,13.835-6.507,21.314l14.863-14.863c1.758-1.758,4.609-1.758,6.368,0l12.359,12.358
					c1.758,1.758,1.758,4.609,0,6.368l-14.864,14.864c7.478,1.454,15.521-0.715,21.314-6.507
					C224.675,312.662,226.449,302.651,223.149,294.156z"/>
				<path style="fill:#FFFFFF;stroke:#263238;stroke-miterlimit:10;" d="M217.354,286.451L217.354,286.451
					c-1.203-1.202-1.203-3.152,0-4.355l67.731-65.883c1.202-1.203,3.152-1.203,4.355,0l0,0c1.203,1.203,1.203,3.152,0,4.355
					l-67.731,65.883C220.506,287.653,218.557,287.653,217.354,286.451z"/>
			</g>
			<g>
				
					<rect x="267.851" y="222.86" transform="matrix(0.7071 -0.7071 0.7071 0.7071 -114.6101 272.3344)" style="fill:#FFFFFF;stroke:#263238;stroke-miterlimit:10;" width="7.162" height="103.307"/>
				<path style="fill:#FFFFFF;stroke:#263238;stroke-miterlimit:10;" d="M323.382,313.901l-12.563,12.563l-10.469-10.469
					c-3.469-3.469-3.469-9.094,0-12.563l0,0c3.469-3.469,9.094-3.469,12.563,0L323.382,313.901z"/>
				
					<rect x="220.639" y="225.374" transform="matrix(0.7071 -0.7071 0.7071 0.7071 -97.2222 230.3562)" style="fill:#FFFFFF;stroke:#263238;stroke-miterlimit:10;" width="17.629" height="14.323"/>
				<path style="fill:#FFFFFF;stroke:#263238;stroke-miterlimit:10;" d="M236.465,223.187l-16.361,16.361
					c-0.861,0.861-2.256,0.861-3.116,0l-41.876-41.876c-4.195-4.195-4.195-10.997,0-15.192l4.285-4.285
					c4.195-4.195,10.997-4.195,15.192,0l41.876,41.876C237.326,220.931,237.326,222.326,236.465,223.187z"/>
				<path style="fill:#FFFFFF;stroke:#263238;stroke-miterlimit:10;" d="M248.931,234.873l-17.14,17.14
					c-0.646,0.645-1.692,0.645-2.337,0l-4.674-4.675c-0.645-0.645-0.645-1.692,0-2.337l17.14-17.14c0.645-0.645,1.692-0.645,2.337,0
					l4.675,4.674C249.576,233.181,249.576,234.227,248.931,234.873z"/>
				<path style="fill:#FFFFFF;stroke:#263238;stroke-miterlimit:10;" d="M222.437,233.319l-3.453,3.453l-41.123-41.123
					c-0.954-0.953-0.954-2.499,0-3.453l0,0c0.953-0.954,2.499-0.954,3.453,0L222.437,233.319z"/>
				<path style="fill:#FFFFFF;stroke:#263238;stroke-miterlimit:10;" d="M228.307,227.449l-3.453,3.453l-41.123-41.123
					c-0.953-0.953-0.953-2.499,0-3.453l0,0c0.954-0.953,2.499-0.953,3.453,0L228.307,227.449z"/>
				<path style="fill:#FFFFFF;stroke:#263238;stroke-miterlimit:10;" d="M234.177,221.58l-3.453,3.453L189.6,183.909
					c-0.953-0.953-0.953-2.499,0-3.453l0,0c0.954-0.954,2.499-0.954,3.453,0L234.177,221.58z"/>
			</g>
		</g>
	</g>
</g>
<g id="Ladders">
	<g>
		<g>
			<polygon style="fill:#FFFFFF;stroke:#263238;stroke-miterlimit:10;" points="371.825,415.074 368.491,415.074 346.964,238.408 
				350.297,238.408 			"/>
			<polygon style="fill:#FFFFFF;stroke:#263238;stroke-miterlimit:10;" points="397.825,415.074 394.491,415.074 372.964,238.408 
				376.297,238.408 			"/>
			<polygon style="fill:#FFFFFF;stroke:#263238;stroke-miterlimit:10;" points="376.511,253.048 350.518,253.048 349.854,247.598 
				375.847,247.598 			"/>
			<polygon style="fill:#FFFFFF;stroke:#263238;stroke-miterlimit:10;" points="378.963,273.171 352.97,273.171 352.306,267.721 
				378.299,267.721 			"/>
			<polygon style="fill:#FFFFFF;stroke:#263238;stroke-miterlimit:10;" points="381.415,293.294 355.423,293.294 354.758,287.844 
				380.751,287.844 			"/>
			<polygon style="fill:#FFFFFF;stroke:#263238;stroke-miterlimit:10;" points="383.867,313.418 357.875,313.418 357.211,307.968 
				383.203,307.968 			"/>
			<polygon style="fill:#FFFFFF;stroke:#263238;stroke-miterlimit:10;" points="386.319,333.541 360.327,333.541 359.663,328.091 
				385.655,328.091 			"/>
			<polygon style="fill:#FFFFFF;stroke:#263238;stroke-miterlimit:10;" points="388.772,353.664 362.779,353.664 362.115,348.214 
				388.107,348.214 			"/>
			<polygon style="fill:#FFFFFF;stroke:#263238;stroke-miterlimit:10;" points="391.224,373.787 365.231,373.787 364.567,368.337 
				390.56,368.337 			"/>
			<polygon style="fill:#FFFFFF;stroke:#263238;stroke-miterlimit:10;" points="393.676,393.911 367.683,393.911 367.019,388.461 
				393.012,388.461 			"/>
		</g>
		
			<line style="fill:none;stroke:#263238;stroke-width:0.5;stroke-miterlimit:10;" x1="350.123" y1="249.745" x2="353.521" y2="249.745"/>
		
			<line style="fill:none;stroke:#263238;stroke-width:0.5;stroke-miterlimit:10;" x1="350.923" y1="251.344" x2="357.519" y2="251.344"/>
		
			<line style="fill:none;stroke:#263238;stroke-width:0.5;stroke-miterlimit:10;" x1="376.109" y1="251.344" x2="371.312" y2="251.344"/>
		
			<line style="fill:none;stroke:#263238;stroke-width:0.5;stroke-miterlimit:10;" x1="378.508" y1="270.733" x2="374.11" y2="270.733"/>
		
			<line style="fill:none;stroke:#263238;stroke-width:0.5;stroke-miterlimit:10;" x1="353.321" y1="271.733" x2="363.516" y2="271.733"/>
		
			<line style="fill:none;stroke:#263238;stroke-width:0.5;stroke-miterlimit:10;" x1="355.12" y1="290.522" x2="363.916" y2="290.522"/>
		
			<line style="fill:none;stroke:#263238;stroke-width:0.5;stroke-miterlimit:10;" x1="355.52" y1="292.122" x2="360.318" y2="292.122"/>
		
			<line style="fill:none;stroke:#263238;stroke-width:0.5;stroke-miterlimit:10;" x1="383.705" y1="310.312" x2="378.308" y2="310.312"/>
		
			<line style="fill:none;stroke:#263238;stroke-width:0.5;stroke-miterlimit:10;" x1="383.305" y1="311.911" x2="374.31" y2="311.911"/>
		
			<line style="fill:none;stroke:#263238;stroke-width:0.5;stroke-miterlimit:10;" x1="391.144" y1="371.741" x2="382.894" y2="371.741"/>
		
			<line style="fill:none;stroke:#263238;stroke-width:0.5;stroke-miterlimit:10;" x1="364.894" y1="370.241" x2="369.894" y2="370.241"/>
		
			<line style="fill:none;stroke:#263238;stroke-width:0.5;stroke-miterlimit:10;" x1="381.644" y1="371.741" x2="375.144" y2="371.741"/>
		
			<line style="fill:none;stroke:#263238;stroke-width:0.5;stroke-miterlimit:10;" x1="367.394" y1="390.991" x2="374.394" y2="390.991"/>
		
			<line style="fill:none;stroke:#263238;stroke-width:0.5;stroke-miterlimit:10;" x1="368.894" y1="392.741" x2="376.894" y2="392.741"/>
		
			<line style="fill:none;stroke:#263238;stroke-width:0.5;stroke-miterlimit:10;" x1="360.894" y1="331.741" x2="363.144" y2="331.741"/>
		
			<line style="fill:none;stroke:#263238;stroke-width:0.5;stroke-miterlimit:10;" x1="385.394" y1="331.241" x2="377.144" y2="331.241"/>
	</g>
	<g>
		
			<polygon style="fill:#263238;stroke:#263238;stroke-width:1.0954;stroke-linecap:round;stroke-linejoin:round;stroke-miterlimit:10;" points="
			176.971,309.439 173.008,314.595 86.873,247.352 90.836,242.195 		"/>
		
			<polygon style="fill:#263238;stroke:#263238;stroke-width:1.0954;stroke-linecap:round;stroke-linejoin:round;stroke-miterlimit:10;" points="
			86.873,309.439 90.836,314.595 176.971,247.352 173.008,242.195 		"/>
		
			<polygon style="fill:#263238;stroke:#263238;stroke-width:1.0954;stroke-linecap:round;stroke-linejoin:round;stroke-miterlimit:10;" points="
			176.971,384.98 174.52,391.634 86.873,322.893 89.377,316.176 		"/>
		
			<polygon style="fill:#263238;stroke:#263238;stroke-width:1.0954;stroke-linecap:round;stroke-linejoin:round;stroke-miterlimit:10;" points="
			86.873,384.98 87.471,392.784 176.971,322.893 173.008,317.736 		"/>
		
			<rect x="85.397" y="241.479" style="fill:#263238;stroke:#263238;stroke-width:1.0954;stroke-linecap:round;stroke-linejoin:round;stroke-miterlimit:10;" width="3.502" height="173.595"/>
		
			<rect x="173.945" y="241.479" style="fill:#263238;stroke:#263238;stroke-width:1.0954;stroke-linecap:round;stroke-linejoin:round;stroke-miterlimit:10;" width="3.502" height="173.595"/>
		
			<polygon style="fill:#FFFFFF;stroke:#263238;stroke-width:1.0954;stroke-linecap:round;stroke-linejoin:round;stroke-miterlimit:10;" points="
			160.116,309.439 156.153,314.595 70.018,247.352 73.981,242.195 		"/>
		
			<polygon style="fill:#FFFFFF;stroke:#263238;stroke-width:1.0954;stroke-linecap:round;stroke-linejoin:round;stroke-miterlimit:10;" points="
			70.018,309.439 73.981,314.595 160.116,247.352 156.153,242.195 		"/>
		
			<polygon style="fill:#FFFFFF;stroke:#263238;stroke-width:1.0954;stroke-linecap:round;stroke-linejoin:round;stroke-miterlimit:10;" points="
			160.116,384.98 157.664,391.634 70.018,322.893 71.281,316.176 		"/>
		
			<polygon style="fill:#FFFFFF;stroke:#263238;stroke-width:1.0954;stroke-linecap:round;stroke-linejoin:round;stroke-miterlimit:10;" points="
			70.018,384.98 70.616,392.784 160.116,322.893 156.153,317.736 		"/>
		
			<rect x="68.541" y="241.479" style="fill:#FFFFFF;stroke:#263238;stroke-width:1.0954;stroke-linecap:round;stroke-linejoin:round;stroke-miterlimit:10;" width="3.502" height="173.595"/>
		
			<rect x="157.09" y="241.479" style="fill:#FFFFFF;stroke:#263238;stroke-width:1.0954;stroke-linecap:round;stroke-linejoin:round;stroke-miterlimit:10;" width="3.502" height="173.595"/>
		
			<rect x="64.039" y="239.874" style="fill:#FFFFFF;stroke:#263238;stroke-width:1.0954;stroke-linecap:round;stroke-linejoin:round;stroke-miterlimit:10;" width="101.056" height="5.503"/>
		
			<rect x="152.624" y="239.874" style="fill:#263238;stroke:#263238;stroke-width:1.0954;stroke-linecap:round;stroke-linejoin:round;stroke-miterlimit:10;" width="28.052" height="5.503"/>
		
			<rect x="64.039" y="311.914" style="fill:#FFFFFF;stroke:#263238;stroke-width:1.0954;stroke-linecap:round;stroke-linejoin:round;stroke-miterlimit:10;" width="101.056" height="5.503"/>
		
			<rect x="152.624" y="311.914" style="fill:#263238;stroke:#263238;stroke-width:1.0954;stroke-linecap:round;stroke-linejoin:round;stroke-miterlimit:10;" width="28.052" height="5.503"/>
	</g>
	<g>
		<g>
			<g>
				<polygon style="fill:#263238;stroke:#263238;stroke-width:0.9727;stroke-miterlimit:10;" points="291.032,415.074 
					283.117,415.074 293.671,353.261 301.586,353.261 				"/>
				<polygon style="fill:#FFFFFF;stroke:#263238;stroke-width:0.9727;stroke-miterlimit:10;" points="306.862,415.074 
					314.778,415.074 304.224,353.261 296.309,353.261 				"/>
			</g>
			<polygon style="fill:#263238;stroke:#263238;stroke-width:0.9727;stroke-miterlimit:10;" points="403.352,415.074 
				395.437,415.074 405.99,353.261 413.905,353.261 			"/>
			<polygon style="fill:#FFFFFF;stroke:#263238;stroke-width:0.9727;stroke-miterlimit:10;" points="419.182,415.074 
				427.097,415.074 416.544,353.261 408.628,353.261 			"/>
			
				<rect x="273.745" y="335.395" style="fill:#C6FF00;stroke:#263238;stroke-width:0.9727;stroke-miterlimit:10;" width="150.969" height="20.968"/>
			
				<rect x="277.425" y="335.395" style="fill:#C6FF00;stroke:#263238;stroke-width:0.9727;stroke-miterlimit:10;" width="150.969" height="20.968"/>
			<g>
				<polygon style="fill:#263238;" points="279.896,356.363 292.711,356.363 299.332,335.395 286.517,335.395 				"/>
				<polygon style="fill:#263238;" points="330.616,335.395 317.801,335.395 311.18,356.363 323.995,356.363 				"/>
				<polygon style="fill:#263238;" points="424.467,335.395 411.652,335.395 405.03,356.363 417.845,356.363 				"/>
				<polygon style="fill:#263238;" points="393.183,335.395 380.368,335.395 373.747,356.363 386.562,356.363 				"/>
				<polygon style="fill:#263238;" points="361.9,335.395 349.085,335.395 342.463,356.363 355.278,356.363 				"/>
			</g>
		</g>
		<g>
			<line style="fill:none;stroke:#263238;stroke-miterlimit:10;" x1="427.57" y1="344.696" x2="402.585" y2="344.696"/>
			<line style="fill:none;stroke:#263238;stroke-miterlimit:10;" x1="427.132" y1="348.203" x2="423.186" y2="348.203"/>
			<line style="fill:none;stroke:#263238;stroke-miterlimit:10;" x1="276.785" y1="347.326" x2="301.77" y2="347.326"/>
			<line style="fill:none;stroke:#263238;stroke-miterlimit:10;" x1="277.223" y1="343.381" x2="308.783" y2="343.381"/>
		</g>
	</g>
</g>
</svg>
